<svg width="138" height="15" viewBox="0 0 138 15" fill="none" xmlns="http://www.w3.org/2000/svg">
<path opacity="0.7" d="M0.482 14V0.604999H9.317V2.524H2.933V6.324H8.88V8.243H2.933V14H0.482ZM11.0768 7.293C11.0768 5.887 11.3302 4.671 11.8368 3.645C12.3562 2.619 13.0972 1.82733 14.0598 1.27C15.0225 0.699999 16.1688 0.414999 17.4988 0.414999C18.8162 0.414999 19.9562 0.699999 20.9188 1.27C21.8815 1.82733 22.6225 2.619 23.1418 3.645C23.6738 4.671 23.9398 5.88067 23.9398 7.274C23.9398 8.68 23.6738 9.90233 23.1418 10.941C22.6225 11.967 21.8815 12.765 20.9188 13.335C19.9562 13.905 18.8162 14.19 17.4988 14.19C16.1688 14.19 15.0225 13.905 14.0598 13.335C13.1098 12.765 12.3752 11.967 11.8558 10.941C11.3365 9.90233 11.0768 8.68633 11.0768 7.293ZM13.6418 7.293C13.6418 8.80033 13.9648 9.97833 14.6108 10.827C15.2568 11.6757 16.2195 12.1 17.4988 12.1C18.7402 12.1 19.6965 11.6757 20.3678 10.827C21.0392 9.97833 21.3748 8.80033 21.3748 7.293C21.3748 5.773 21.0392 4.595 20.3678 3.759C19.7092 2.923 18.7528 2.505 17.4988 2.505C16.2195 2.505 15.2568 2.923 14.6108 3.759C13.9648 4.595 13.6418 5.773 13.6418 7.293ZM26.4319 7.293C26.4319 5.887 26.6852 4.671 27.1919 3.645C27.7112 2.619 28.4522 1.82733 29.4149 1.27C30.3776 0.699999 31.5239 0.414999 32.8539 0.414999C34.1712 0.414999 35.3112 0.699999 36.2739 1.27C37.2366 1.82733 37.9776 2.619 38.4969 3.645C39.0289 4.671 39.2949 5.88067 39.2949 7.274C39.2949 8.68 39.0289 9.90233 38.4969 10.941C37.9776 11.967 37.2366 12.765 36.2739 13.335C35.3112 13.905 34.1712 14.19 32.8539 14.19C31.5239 14.19 30.3776 13.905 29.4149 13.335C28.4649 12.765 27.7302 11.967 27.2109 10.941C26.6916 9.90233 26.4319 8.68633 26.4319 7.293ZM28.9969 7.293C28.9969 8.80033 29.3199 9.97833 29.9659 10.827C30.6119 11.6757 31.5746 12.1 32.8539 12.1C34.0952 12.1 35.0516 11.6757 35.7229 10.827C36.3942 9.97833 36.7299 8.80033 36.7299 7.293C36.7299 5.773 36.3942 4.595 35.7229 3.759C35.0642 2.923 34.1079 2.505 32.8539 2.505C31.5746 2.505 30.6119 2.923 29.9659 3.759C29.3199 4.595 28.9969 5.773 28.9969 7.293ZM42.224 14V0.604999H47.088C48.6207 0.604999 49.9127 0.870999 50.964 1.403C52.028 1.92233 52.8323 2.68233 53.377 3.683C53.9217 4.671 54.194 5.87433 54.194 7.293C54.194 8.699 53.9217 9.90233 53.377 10.903C52.8323 11.9037 52.028 12.67 50.964 13.202C49.9127 13.734 48.6207 14 47.088 14H42.224ZM44.675 11.967H46.936C48.5573 11.967 49.7607 11.5807 50.546 10.808C51.3313 10.0353 51.724 8.86367 51.724 7.293C51.724 5.70967 51.3313 4.538 50.546 3.778C49.7607 3.00533 48.5573 2.619 46.936 2.619H44.675V11.967ZM62.7105 14V0.604999H68.6575C70.1268 0.604999 71.2478 0.959666 72.0205 1.669C72.7932 2.37833 73.1795 3.35367 73.1795 4.595C73.1795 5.82367 72.7932 6.799 72.0205 7.521C71.2478 8.243 70.1268 8.604 68.6575 8.604H65.1615V14H62.7105ZM65.1615 6.666H68.3725C69.1832 6.666 69.7912 6.48867 70.1965 6.134C70.6018 5.76667 70.8045 5.25367 70.8045 4.595C70.8045 3.93633 70.6018 3.42967 70.1965 3.075C69.7912 2.70767 69.1832 2.524 68.3725 2.524H65.1615V6.666ZM75.7648 14V0.604999H78.2158V11.929H84.5238V14H75.7648ZM85.0178 14L91.0788 0.604999H93.1308L99.2678 14H96.7788L95.1448 10.238L96.1328 10.903H88.0958L89.1218 10.238L87.4878 14H85.0178ZM92.0858 3.227L89.4068 9.573L88.9128 8.984H95.2968L94.8978 9.573L92.1618 3.227H92.0858ZM101.15 14V0.604999H102.993L110.764 10.656H110.27V0.604999H112.55V14H110.707L102.955 3.949H103.43V14H101.15ZM115.893 14V0.604999H124.918V2.524H118.249V6.229H124.481V8.167H118.249V12.062H124.918V14H115.893ZM130.654 14V2.619H126.227V0.604999H137.532V2.619H133.105V14H130.654Z" fill="#A4A6B3"/>
</svg>
